<?xml version="1.0" encoding="UTF-8"?>
<!DOCTYPE svg PUBLIC "-//W3C//DTD SVG 1.1//EN" "http://www.w3.org/Graphics/SVG/1.1/DTD/svg11.dtd">
<svg xmlns="http://www.w3.org/2000/svg" version="1.1" width="1024px" height="178px" style="shape-rendering:geometricPrecision; text-rendering:geometricPrecision; image-rendering:optimizeQuality; fill-rule:evenodd; clip-rule:evenodd" xmlns:xlink="http://www.w3.org/1999/xlink">
<g><path style="opacity:0.881" fill="#fe0000" d="M 511.5,-0.5 C 514.833,-0.5 518.167,-0.5 521.5,-0.5C 522.172,0.267389 523.005,0.934056 524,1.5C 532.541,29.456 540.875,57.456 549,85.5C 565.333,58.1667 581.667,30.8333 598,3.5C 599.812,2.02294 601.645,0.689603 603.5,-0.5C 607.167,-0.5 610.833,-0.5 614.5,-0.5C 617.821,1.0969 619.988,3.76356 621,7.5C 628.542,33.5495 636.209,59.5495 644,85.5C 660.301,57.8535 676.635,30.1869 693,2.5C 694.652,1.60064 696.152,0.60064 697.5,-0.5C 700.833,-0.5 704.167,-0.5 707.5,-0.5C 712.722,2.00943 713.888,6.00943 711,11.5C 690.749,44.3337 670.749,77.3337 651,110.5C 645.27,115.585 638.77,116.752 631.5,114C 629.959,112.421 628.792,110.587 628,108.5C 620.579,82.6989 612.912,57.0322 605,31.5C 589.082,56.9999 573.416,82.6666 558,108.5C 551.946,114.64 544.78,116.14 536.5,113C 534.348,110.531 532.848,107.698 532,104.5C 523.194,73.7525 514.194,43.0858 505,12.5C 503.056,5.97953 505.223,1.6462 511.5,-0.5 Z"/></g>
<g><path style="opacity:0.873" fill="#fe0000" d="M 257.5,7.5 C 262.784,7.28535 265.784,9.78535 266.5,15C 265.025,24.2059 263.359,33.3726 261.5,42.5C 270.173,42.3336 278.84,42.5002 287.5,43C 288.931,43.4652 290.097,44.2986 291,45.5C 292.928,51.4793 291.095,55.646 285.5,58C 276.506,58.4998 267.506,58.6664 258.5,58.5C 256.717,70.566 254.884,82.566 253,94.5C 253.93,96.5524 255.43,98.0524 257.5,99C 264.939,99.0699 272.272,99.7365 279.5,101C 281.994,104.647 282.16,108.481 280,112.5C 278.581,113.46 277.081,114.293 275.5,115C 266.091,115.917 256.758,115.584 247.5,114C 238.781,110.395 234.781,103.895 235.5,94.5C 239.158,67.7062 243.658,41.0396 249,14.5C 250.415,10.3839 253.248,8.0506 257.5,7.5 Z"/></g>
<g><path style="opacity:0.877" fill="#fe0000" d="M 808.5,9.5 C 818.156,7.32476 821.99,10.9914 820,20.5C 818.818,27.91 817.318,35.2433 815.5,42.5C 833.824,43.333 852.158,43.833 870.5,44C 882.102,45.6025 888.102,52.2691 888.5,64C 887.34,77.1279 884.84,89.9612 881,102.5C 876.134,109.367 869.634,113.867 861.5,116C 842.5,116.667 823.5,116.667 804.5,116C 794.54,113.041 789.54,106.375 789.5,96C 793.515,67.596 798.681,39.4294 805,11.5C 806.302,10.9152 807.469,10.2485 808.5,9.5 Z M 812.5,59.5 C 831.235,59.0387 849.902,59.5387 868.5,61C 869.894,62.7395 870.561,64.7395 870.5,67C 869.473,76.6625 867.64,86.1625 865,95.5C 863.269,97.6166 861.102,99.1166 858.5,100C 842.833,100.667 827.167,100.667 811.5,100C 808.75,98.9152 807.083,96.9152 806.5,94C 809.275,82.6265 811.275,71.1265 812.5,59.5 Z"/></g>
<g><path style="opacity:0.877" fill="#fe0000" d="M -0.5,57.5 C -0.5,53.5 -0.5,49.5 -0.5,45.5C 4.38464,42.5846 9.71797,41.7512 15.5,43C 16.3333,43.8333 17.1667,44.6667 18,45.5C 29.5005,75.5042 41.0005,105.504 52.5,135.5C 71.9155,106.337 91.0821,77.0042 110,47.5C 112.813,43.5107 116.646,41.8441 121.5,42.5C 126.943,41.4574 129.943,43.6241 130.5,49C 130.274,52.0117 129.441,54.845 128,57.5C 106.048,90.4289 84.3816,123.429 63,156.5C 59.0341,164.066 52.8674,167.232 44.5,166C 42,164.833 40.1667,163 39,160.5C 25.9692,125.982 12.8026,91.6485 -0.5,57.5 Z"/></g>
<g><path style="opacity:0.878" fill="#fe0000" d="M 159.5,42.5 C 176.503,42.3334 193.503,42.5001 210.5,43C 224.138,45.9939 229.972,54.4939 228,68.5C 227.107,73.5232 226.107,78.5232 225,83.5C 224.052,85.5701 222.552,87.0701 220.5,88C 196.169,88.5 171.836,88.6666 147.5,88.5C 147.337,90.8568 147.503,93.1902 148,95.5C 148.5,97.3333 149.667,98.5 151.5,99C 172.5,99.3333 193.5,99.6667 214.5,100C 220.166,105.688 219.5,110.688 212.5,115C 190.167,115.667 167.833,115.667 145.5,115C 135.22,112.554 129.887,106.054 129.5,95.5C 130.878,83.352 133.045,71.352 136,59.5C 141.485,50.5057 149.318,44.8391 159.5,42.5 Z M 159.5,58.5 C 174.837,58.3334 190.17,58.5001 205.5,59C 207.286,59.7845 208.786,60.9512 210,62.5C 210.388,65.8492 210.221,69.1825 209.5,72.5C 189.822,72.833 170.155,72.4996 150.5,71.5C 151.299,65.5455 154.299,61.2121 159.5,58.5 Z"/></g>
<g><path style="opacity:0.877" fill="#fe0000" d="M 323.5,42.5 C 343.503,42.3334 363.503,42.5 383.5,43C 395.386,44.7166 401.386,51.55 401.5,63.5C 400.196,73.5227 398.696,83.5227 397,93.5C 392.854,105.317 384.687,112.483 372.5,115C 351.5,115.667 330.5,115.667 309.5,115C 299.04,112.705 293.373,106.205 292.5,95.5C 294.527,84.8637 296.361,74.1971 298,63.5C 302.538,51.6526 311.038,44.6526 323.5,42.5 Z M 323.5,58.5 C 342.593,58.0254 361.593,58.5254 380.5,60C 382.833,61.3333 383.833,63.3333 383.5,66C 382.204,74.8678 380.704,83.7011 379,92.5C 377.332,96.1655 374.499,98.3322 370.5,99C 352.5,99.6667 334.5,99.6667 316.5,99C 312.888,98.0548 311.221,95.7215 311.5,92C 312.484,83.0804 313.984,74.2471 316,65.5C 317.742,62.2543 320.242,59.921 323.5,58.5 Z"/></g>
<g><path style="opacity:0.86" fill="#fe0000" d="M 437.5,42.5 C 452.837,42.3334 468.17,42.5001 483.5,43C 496.572,45.9582 502.072,54.1249 500,67.5C 498.22,71.7928 495.054,73.7928 490.5,73.5C 487.989,73.712 485.822,73.0454 484,71.5C 482.994,68.0836 482.327,64.7502 482,61.5C 480.581,60.5399 479.081,59.7065 477.5,59C 464.5,58.3333 451.5,58.3333 438.5,59C 433.21,59.9575 430.376,63.1242 430,68.5C 427.17,82.4752 424.503,96.4752 422,110.5C 418.975,114.921 414.808,116.421 409.5,115C 406.099,113.68 404.765,111.18 405.5,107.5C 407.772,90.9832 410.939,74.6499 415,58.5C 420.187,49.7993 427.687,44.4659 437.5,42.5 Z"/></g>
<g><path style="opacity:0.878" fill="#fe0000" d="M 713.5,42.5 C 730.503,42.3334 747.503,42.5001 764.5,43C 776.39,44.7206 782.39,51.5539 782.5,63.5C 782.044,70.613 780.878,77.613 779,84.5C 778.167,85.3333 777.333,86.1667 776.5,87C 751.921,88.3145 727.254,88.9812 702.5,89C 700.396,93.728 701.73,97.0613 706.5,99C 727.167,99.3333 747.833,99.6667 768.5,100C 769.931,100.465 771.097,101.299 772,102.5C 773.928,108.479 772.095,112.646 766.5,115C 744.167,115.667 721.833,115.667 699.5,115C 689.209,112.545 683.876,106.045 683.5,95.5C 685.157,83.7305 687.324,72.0639 690,60.5C 693.167,53.3333 698.333,48.1667 705.5,45C 708.379,44.454 711.046,43.6206 713.5,42.5 Z M 714.5,58.5 C 729.504,58.3334 744.504,58.5001 759.5,59C 765.47,61.9107 766.804,66.244 763.5,72C 743.833,72.6667 724.167,72.6667 704.5,72C 705.168,68.6795 706.335,65.5128 708,62.5C 710.173,61.0672 712.34,59.7339 714.5,58.5 Z"/></g>
<g><path style="opacity:0.906" fill="#fe0000" d="M 903.5,43.5 C 917.516,43.1674 931.516,43.5008 945.5,44.5C 954.874,64.1895 964.208,83.8562 973.5,103.5C 957.591,124.413 940.925,144.747 923.5,164.5C 910.183,165.499 896.85,165.833 883.5,165.5C 883.351,164.448 883.517,163.448 884,162.5C 901.021,142.981 917.854,123.314 934.5,103.5C 923.595,83.6865 913.261,63.6865 903.5,43.5 Z"/></g>
<g><path style="opacity:0.912" fill="#fe0000" d="M 1023.5,100.5 C 1023.5,102.5 1023.5,104.5 1023.5,106.5C 1007.18,125.498 991.176,144.831 975.5,164.5C 962.183,165.499 948.85,165.833 935.5,165.5C 935.343,164.127 935.51,162.793 936,161.5C 952.356,141.979 968.522,122.312 984.5,102.5C 974.833,83.1667 965.167,63.8333 955.5,44.5C 968.487,43.334 981.487,43.1673 994.5,44C 1004.09,62.9645 1013.75,81.7978 1023.5,100.5 Z"/></g>
<g><path style="opacity:0.676" fill="#fe0000" d="M 513.5,122.5 C 515.5,122.5 517.5,122.5 519.5,122.5C 519.667,135.171 519.5,147.838 519,160.5C 518.167,161.333 517.333,162.167 516.5,163C 512.112,164.107 507.612,164.607 503,164.5C 498.782,164.47 494.615,164.136 490.5,163.5C 489.147,162.315 487.98,160.981 487,159.5C 486.333,153.5 486.333,147.5 487,141.5C 488.26,138.572 490.427,136.739 493.5,136C 500.158,135.5 506.825,135.334 513.5,135.5C 513.5,131.167 513.5,126.833 513.5,122.5 Z M 494.5,142.5 C 500.833,142.5 507.167,142.5 513.5,142.5C 513.888,147.628 513.388,152.628 512,157.5C 506,158.833 500,158.833 494,157.5C 491.912,152.394 492.079,147.394 494.5,142.5 Z"/></g>
<g><path style="opacity:0.664" fill="#fe0000" d="M 658.5,122.5 C 660.5,122.5 662.5,122.5 664.5,122.5C 664.5,126.833 664.5,131.167 664.5,135.5C 667.85,135.335 671.183,135.502 674.5,136C 676.62,137.523 676.953,139.356 675.5,141.5C 671.893,142.489 668.226,142.823 664.5,142.5C 664.112,147.628 664.612,152.628 666,157.5C 669.076,158.288 672.242,158.788 675.5,159C 676.554,160.388 676.72,161.888 676,163.5C 671.921,164.629 667.755,164.796 663.5,164C 661.43,163.052 659.93,161.552 659,159.5C 658.5,147.171 658.333,134.838 658.5,122.5 Z"/></g>
<g><path style="opacity:0.67" fill="#fe0000" d="M 856.5,122.5 C 858.5,122.5 860.5,122.5 862.5,122.5C 862.5,126.833 862.5,131.167 862.5,135.5C 865.85,135.335 869.183,135.502 872.5,136C 873.833,138 873.833,140 872.5,142C 869.183,142.498 865.85,142.665 862.5,142.5C 862.334,147.179 862.501,151.845 863,156.5C 863.5,157 864,157.5 864.5,158C 867.167,158.333 869.833,158.667 872.5,159C 873.406,160.699 873.739,162.533 873.5,164.5C 869.486,164.666 865.486,164.499 861.5,164C 859.714,163.215 858.214,162.049 857,160.5C 856.5,147.838 856.333,135.171 856.5,122.5 Z"/></g>
<g><path style="opacity:0.53" fill="#fe0000" d="M 282.5,124.5 C 287.068,124.083 288.568,126.083 287,130.5C 285.148,134.077 282.482,135.077 279,133.5C 278.833,132.667 278.667,131.833 278.5,131C 279.205,128.458 280.539,126.292 282.5,124.5 Z"/></g>
<g><path style="opacity:0.504" fill="#fe0000" d="M 354.5,126.5 C 355.93,126.421 357.264,126.754 358.5,127.5C 359.474,129.743 359.808,132.076 359.5,134.5C 357.5,134.5 355.5,134.5 353.5,134.5C 353.279,131.721 353.612,129.054 354.5,126.5 Z"/></g>
<g><path style="opacity:0.498" fill="#fe0000" d="M 601.5,126.5 C 602.822,126.33 603.989,126.663 605,127.5C 605.497,129.81 605.663,132.143 605.5,134.5C 603.5,134.5 601.5,134.5 599.5,134.5C 599.132,131.467 599.798,128.8 601.5,126.5 Z"/></g>
<g><path style="opacity:0.637" fill="#fe0000" d="M 134.5,135.5 C 142.174,135.334 149.841,135.5 157.5,136C 161,136.833 163.167,139 164,142.5C 164.667,149.5 164.667,156.5 164,163.5C 162.301,164.406 160.467,164.739 158.5,164.5C 158.925,157.385 158.425,150.385 157,143.5C 151.259,142.525 145.425,142.192 139.5,142.5C 139.666,149.508 139.5,156.508 139,163.5C 137,164.833 135,164.833 133,163.5C 131.905,153.909 132.405,144.575 134.5,135.5 Z"/></g>
<g><path style="opacity:0.641" fill="#fe0000" d="M 181.5,135.5 C 188.508,135.334 195.508,135.5 202.5,136C 209.68,140.482 211.347,146.482 207.5,154C 198.814,154.168 190.148,154.668 181.5,155.5C 181.977,156.478 182.643,157.311 183.5,158C 191.167,158.333 198.833,158.667 206.5,159C 208.658,160.312 208.991,161.978 207.5,164C 198.167,164.667 188.833,164.667 179.5,164C 178.333,162.833 177.167,161.667 176,160.5C 174.473,154.585 174.139,148.585 175,142.5C 176.694,139.642 178.861,137.309 181.5,135.5 Z M 182.5,142.5 C 188.842,142.334 195.175,142.5 201.5,143C 202.38,144.356 202.714,145.856 202.5,147.5C 195.5,147.5 188.5,147.5 181.5,147.5C 181.366,145.708 181.699,144.042 182.5,142.5 Z"/></g>
<g><path style="opacity:0.704" fill="#fe0000" d="M 249.5,177.5 C 240.167,177.5 230.833,177.5 221.5,177.5C 221.5,175.833 221.5,174.167 221.5,172.5C 229.174,172.666 236.841,172.5 244.5,172C 247.041,170.152 248.041,167.652 247.5,164.5C 239.826,164.666 232.159,164.5 224.5,164C 222.333,163.167 220.833,161.667 220,159.5C 219.333,153.167 219.333,146.833 220,140.5C 224.536,136.072 230.036,134.405 236.5,135.5C 241.43,135.14 246.097,135.974 250.5,138C 251.46,139.419 252.293,140.919 253,142.5C 253.667,152.5 253.667,162.5 253,172.5C 252.303,174.584 251.136,176.251 249.5,177.5 Z M 227.5,142.5 C 233.509,142.334 239.509,142.501 245.5,143C 246.126,143.75 246.626,144.584 247,145.5C 247.499,149.821 247.666,154.154 247.5,158.5C 240.825,158.666 234.158,158.5 227.5,158C 227,157.5 226.5,157 226,156.5C 224.966,151.543 225.466,146.876 227.5,142.5 Z"/></g>
<g><path style="opacity:0.657" fill="#fe0000" d="M 270.5,135.5 C 279.582,135.086 288.582,135.586 297.5,137C 298.787,138.41 299.954,139.91 301,141.5C 301.667,147.167 301.667,152.833 301,158.5C 300.234,160.933 298.734,162.766 296.5,164C 287.167,164.667 277.833,164.667 268.5,164C 266.622,162.457 265.122,160.624 264,158.5C 263.333,153.167 263.333,147.833 264,142.5C 265.694,139.642 267.861,137.309 270.5,135.5 Z M 271.5,142.5 C 278.841,142.334 286.174,142.5 293.5,143C 295.715,147.323 296.048,151.823 294.5,156.5C 293.975,157.192 293.308,157.692 292.5,158C 285.833,158.667 279.167,158.667 272.5,158C 272,157.5 271.5,157 271,156.5C 270.227,151.748 270.393,147.081 271.5,142.5 Z"/></g>
<g><path style="opacity:0.64" fill="#fe0000" d="M 317.5,135.5 C 326.221,135.196 334.888,135.529 343.5,136.5C 344.76,138.353 344.76,140.186 343.5,142C 335.167,142.333 326.833,142.667 318.5,143C 317.198,147.782 317.198,152.615 318.5,157.5C 326.785,158.304 335.118,158.804 343.5,159C 344.833,160.667 344.833,162.333 343.5,164C 334.167,164.667 324.833,164.667 315.5,164C 314.333,162.833 313.167,161.667 312,160.5C 310.424,154.612 310.091,148.612 311,142.5C 312.694,139.642 314.861,137.309 317.5,135.5 Z"/></g>
<g><path style="opacity:0.674" fill="#fe0000" d="M 354.5,135.5 C 355.93,135.421 357.264,135.754 358.5,136.5C 359.665,145.482 359.832,154.482 359,163.5C 357.301,164.406 355.467,164.739 353.5,164.5C 353.194,154.75 353.527,145.084 354.5,135.5 Z"/></g>
<g><path style="opacity:0.675" fill="#fe0000" d="M 376.5,135.5 C 384.507,135.334 392.507,135.5 400.5,136C 403.057,136.685 404.891,138.185 406,140.5C 406.667,147.167 406.667,153.833 406,160.5C 404.833,161.667 403.667,162.833 402.5,164C 393.167,164.667 383.833,164.667 374.5,164C 372.274,162.773 370.774,160.939 370,158.5C 369.333,153.167 369.333,147.833 370,142.5C 371.018,138.985 373.185,136.652 376.5,135.5 Z M 377.5,142.5 C 384.841,142.334 392.174,142.5 399.5,143C 400.802,147.782 400.802,152.615 399.5,157.5C 392.55,158.63 385.55,158.797 378.5,158C 374.899,153.078 374.565,147.911 377.5,142.5 Z"/></g>
<g><path style="opacity:0.654" fill="#fe0000" d="M 423.5,135.5 C 432.192,135.169 440.859,135.502 449.5,136.5C 450.767,138.371 450.767,140.204 449.5,142C 441.167,142.333 432.833,142.667 424.5,143C 423.273,144.587 423.606,145.921 425.5,147C 432.939,147.07 440.272,147.737 447.5,149C 451.5,153.667 451.5,158.333 447.5,163C 442.274,164.118 436.941,164.618 431.5,164.5C 426.587,164.487 421.753,164.154 417,163.5C 416.28,161.888 416.446,160.388 417.5,159C 425.833,158.667 434.167,158.333 442.5,158C 445.167,156.667 445.167,155.333 442.5,154C 434.771,153.857 427.105,153.19 419.5,152C 414.602,144.85 415.935,139.35 423.5,135.5 Z"/></g>
<g><path style="opacity:0.654" fill="#fe0000" d="M 536.5,135.5 C 543.175,135.334 549.842,135.5 556.5,136C 561.996,137.814 564.329,141.647 563.5,147.5C 563.167,149.5 562.833,151.5 562.5,153.5C 553.548,154.306 544.548,154.806 535.5,155C 536.167,156.333 537.167,157.333 538.5,158C 546.167,158.333 553.833,158.667 561.5,159C 562.833,160.667 562.833,162.333 561.5,164C 552.5,164.667 543.5,164.667 534.5,164C 532.185,162.891 530.685,161.057 530,158.5C 529.333,153.167 529.333,147.833 530,142.5C 531.018,138.985 533.185,136.652 536.5,135.5 Z M 537.5,142.5 C 543.509,142.334 549.509,142.501 555.5,143C 557.037,144.11 557.703,145.61 557.5,147.5C 550.137,147.831 542.803,147.497 535.5,146.5C 536.18,145.14 536.847,143.807 537.5,142.5 Z"/></g>
<g><path style="opacity:0.657" fill="#fe0000" d="M 601.5,135.5 C 602.822,135.33 603.989,135.663 605,136.5C 605.5,145.827 605.666,155.161 605.5,164.5C 603.533,164.739 601.699,164.406 600,163.5C 598.905,153.909 599.405,144.575 601.5,135.5 Z"/></g>
<g><path style="opacity:0.671" fill="#fe0000" d="M 617.5,135.5 C 626.25,135.09 634.916,135.59 643.5,137C 645.049,138.214 646.215,139.714 647,141.5C 647.5,149.159 647.666,156.826 647.5,164.5C 645.533,164.739 643.699,164.406 642,163.5C 641.667,157.167 641.333,150.833 641,144.5C 640.5,144 640,143.5 639.5,143C 633.843,142.501 628.176,142.334 622.5,142.5C 622.666,149.508 622.5,156.508 622,163.5C 620.301,164.406 618.467,164.739 616.5,164.5C 616.194,154.75 616.527,145.084 617.5,135.5 Z"/></g>
<g><path style="opacity:0.655" fill="#fe0000" d="M 692.5,135.5 C 699.175,135.334 705.842,135.5 712.5,136C 717.496,138.172 719.829,142.005 719.5,147.5C 719.712,150.011 719.045,152.178 717.5,154C 708.814,154.168 700.148,154.668 691.5,155.5C 691.977,156.478 692.643,157.311 693.5,158C 701.5,158.333 709.5,158.667 717.5,159C 718.833,160.667 718.833,162.333 717.5,164C 708.5,164.667 699.5,164.667 690.5,164C 689.069,163.535 687.903,162.701 687,161.5C 685.414,154.943 685.08,148.276 686,141.5C 687.436,138.558 689.603,136.558 692.5,135.5 Z M 693.5,142.5 C 699.509,142.334 705.509,142.501 711.5,143C 712.293,144.085 712.96,145.252 713.5,146.5C 706.197,147.497 698.863,147.831 691.5,147.5C 691.392,145.486 692.058,143.82 693.5,142.5 Z"/></g>
<g><path style="opacity:0.631" fill="#fe0000" d="M 736.5,135.5 C 742.509,135.334 748.509,135.501 754.5,136C 758.734,137.446 761.067,140.446 761.5,145C 760.031,148.826 757.864,149.326 755,146.5C 754.691,145.234 754.191,144.067 753.5,143C 747.804,142.17 742.137,142.337 736.5,143.5C 735.536,150.442 735.203,157.442 735.5,164.5C 733.5,164.5 731.5,164.5 729.5,164.5C 729.334,156.493 729.5,148.493 730,140.5C 731.805,138.174 733.972,136.508 736.5,135.5 Z"/></g>
<g><path style="opacity:0.633" fill="#fe0000" d="M 771.5,135.5 C 779.174,135.334 786.841,135.5 794.5,136C 797.583,136.786 799.749,138.619 801,141.5C 801.5,149.159 801.666,156.826 801.5,164.5C 798.921,164.917 796.754,164.25 795,162.5C 794.813,155.919 794.313,149.419 793.5,143C 787.509,142.501 781.509,142.334 775.5,142.5C 775.5,149.833 775.5,157.167 775.5,164.5C 773.533,164.739 771.699,164.406 770,163.5C 769.333,154.833 769.333,146.167 770,137.5C 770.717,136.956 771.217,136.289 771.5,135.5 Z"/></g>
<g><path style="opacity:0.665" fill="#fe0000" d="M 818.5,135.5 C 825.175,135.334 831.842,135.5 838.5,136C 844.048,137.56 846.382,141.226 845.5,147C 845.47,149.424 845.137,151.757 844.5,154C 835.814,154.168 827.148,154.668 818.5,155.5C 818.977,156.478 819.643,157.311 820.5,158C 828.167,158.333 835.833,158.667 843.5,159C 844.406,160.699 844.739,162.533 844.5,164.5C 835.494,164.666 826.494,164.5 817.5,164C 815.714,163.215 814.214,162.049 813,160.5C 812.333,153.833 812.333,147.167 813,140.5C 814.352,138.251 816.185,136.584 818.5,135.5 Z M 819.5,142.5 C 825.842,142.334 832.175,142.5 838.5,143C 839.38,144.356 839.714,145.856 839.5,147.5C 832.5,147.5 825.5,147.5 818.5,147.5C 818.629,145.784 818.962,144.117 819.5,142.5 Z"/></g>
</svg>
